{"title":"Future X Cops (2010) - DvDRip (NLSubs) - ACB-Team","uid":6197193,"size":1172641790,"categoryP":"video","categoryS":"movies","magnet":"?xt=urn:btih:6e1a6c96f28d7c2bfce67004e2afa1f093b63326&amp;dn=Future+X+Cops+%282010%29+-+DvDRip+%28NLSubs%29+-+ACB-Team&amp;tr=udp%3A%2F%2Ftracker.openbittorrent.com%3A80&amp;tr=udp%3A%2F%2Fopen.demonii.com%3A1337&amp;tr=udp%3A%2F%2Ftracker.coppersurfer.tk%3A6969&amp;tr=udp%3A%2F%2Fexodus.desync.com%3A6969","seeders":0,"leechers":1,"uploader":"JornNL","files":-1,"time":1298481972,"description":"MOVIE INFO:\nRegie: \tJing Wong\nCast: \tAndy Lau, Bingbing Fan, Barbie Hsu\nGenre: \tScience Fiction\nLand: \tHongkong, Taiwan\nTijdsduur: \t94 minuten\nPlot:\nEen politie-agent (Andy Lau) uit het jaar 2085 komt per ongeluk aan in het jaar 2010. Hij ontmoet een vrouwelijke agente (Barbie Hsu) en samen vormen ze een team tegen een internationaal misdaad syndicaat. \n\nMEDIA INFO:\nGeneral\nComplete name                    : Future X Cops (2010) - DvDRip (NLSubs) - ACB-Team.avi\nFormat                           : AVI\nFormat/Info                      : Audio Video Interleave\nFile size                        : 1.09 GiB\nDuration                         : 1h 40mn\nOverall bit rate                 : 1 556 Kbps\nWriting application              : VirtualDubMod 1.5.4.1 (build 2178/release)\nWriting library                  : VirtualDubMod build 2178/release\n\nVideo\nID                               : 0\nFormat                           : MPEG-4 Visual\nFormat profile                   : Advanced Simple@L5\nFormat settings, BVOP            : 1\nFormat settings, QPel            : No\nFormat settings, GMC             : No warppoints\nFormat settings, Matrix          : Custom\nCodec ID                         : XVID\nCodec ID/Hint                    : XviD\nDuration                         : 1h 40mn\nBit rate                         : 1 417 Kbps\nWidth                            : 640 pixels\nHeight                           : 272 pixels\nDisplay aspect ratio             : 2.35:1\nFrame rate                       : 23.976 fps\nColor space                      : YUV\nChroma subsampling               : 4:2:0\nBit depth                        : 8 bits\nScan type                        : Progressive\nCompression mode                 : Lossy\nBits/(Pixel*Frame)               : 0.340\nStream size                      : 1 018 MiB (91%)\nWriting library                  : XviD 58\n\nAudio\nID                               : 1\nFormat                           : MPEG Audio\nFormat version                   : Version 1\nFormat profile                   : Layer 3\nMode                             : Joint stereo\nMode extension                   : MS Stereo\nCodec ID                         : 55\nCodec ID/Hint                    : MP3\nDuration                         : 1h 40mn\nBit rate mode                    : Variable\nBit rate                         : 128 Kbps\nChannel(s)                       : 2 channels\nSampling rate                    : 48.0 KHz\nCompression mode                 : Lossy\nStream size                      : 90.5 MiB (8%)\nAlignment                        : Aligned on interleaves\nInterleave, duration             : 24 ms (0.58 video frame)\nInterleave, preload duration     : 146 ms\nWriting library                  : LAME3.90.\nEncoding settings                : -m j -V 4 -q 2 -lowpass 17.6 --abr 128\n\n","torrent":{"xt":"urn:btih:6e1a6c96f28d7c2bfce67004e2afa1f093b63326","amp;dn":"Future+X+Cops+%282010%29+-+DvDRip+%28NLSubs%29+-+ACB-Team","amp;tr":["udp%3A%2F%2Ftracker.openbittorrent.com%3A80","udp%3A%2F%2Fopen.demonii.com%3A1337","udp%3A%2F%2Ftracker.coppersurfer.tk%3A6969","udp%3A%2F%2Fexodus.desync.com%3A6969"],"infoHash":"6e1a6c96f28d7c2bfce67004e2afa1f093b63326","infoHashBuffer":{"type":"Buffer","data":[110,26,108,150,242,141,124,43,252,230,112,4,226,175,161,240,147,182,51,38]},"announce":[],"urlList":[]}}